<svg xmlns="http://www.w3.org/2000/svg" aria-hidden="true" style="position:absolute;width:0;height:0" overflow="hidden">
  <defs>

<symbol id="icon-logo" viewBox="0 0 82 32">
<path fill="#f7efed" style="fill: var(--color1, #f7efed)" d="M37.033 12.336h-4.119l4.243-4.216h-4.687v8.875h5.38v0.416h-5.796v-9.707h6.115l-4.243 4.216h3.106zM41.958 7.705h5.686l-3.536 9.72-3.536-9.72h0.444l3.092 8.5 2.94-8.085h-5.089zM55.894 12.336h-4.119l4.243-4.216h-4.687v8.875h5.381v0.416h-5.797v-9.707h6.115l-4.243 4.216h3.106zM61.651 16.996h4.299l-4.964-8.584v9h-0.416v-9.707h0.485l5.186 8.972v-8.972h0.416v9.707h-5.006zM76.832 7.705v0.416h-3.259v9.291h-0.416v-9.291h-3.259v-0.416zM34.204 21.922q0.621 0 1.127 0.296c0.339 0.195 0.61 0.475 0.79 0.811l0.005 0.011q0.296 0.524 0.296 1.188t-0.296 1.188c-0.19 0.34-0.46 0.616-0.785 0.807l-0.010 0.005q-0.506 0.288-1.127 0.288-0.655 0-1.179-0.332c-0.339-0.22-0.604-0.529-0.763-0.895l-0.005-0.013v2.908h-0.288v-6.228h0.28v1.24q0.254-0.594 0.769-0.935 0.524-0.341 1.188-0.341zM34.195 26.254q0.551 0 0.987-0.253c0.294-0.174 0.531-0.417 0.694-0.707l0.005-0.009q0.253-0.463 0.253-1.057t-0.253-1.057c-0.163-0.302-0.401-0.546-0.69-0.712l-0.009-0.005q-0.437-0.262-0.987-0.262t-0.996 0.262c-0.293 0.172-0.528 0.416-0.685 0.707l-0.005 0.010q-0.253 0.463-0.253 1.057t0.253 1.057q0.254 0.454 0.69 0.716c0.279 0.159 0.612 0.253 0.968 0.253 0.010 0 0.019-0 0.029-0l-0.001 0zM38.894 20.009h0.288v6.481h-0.288zM43.654 21.922q0.812 0 1.24 0.419 0.437 0.42 0.437 1.214v2.935h-0.279v-0.908c-0.148 0.293-0.373 0.528-0.648 0.686l-0.008 0.004q-0.428 0.245-1.031 0.245-0.76 0-1.197-0.35-0.428-0.349-0.428-0.926 0-0.551 0.393-0.891 0.393-0.349 1.258-0.349h1.651v-0.446q0-0.673-0.358-1.022-0.349-0.349-1.040-0.349-0.48 0-0.9 0.166c-0.277 0.108-0.515 0.258-0.718 0.447l0.001-0.001-0.157-0.209c0.222-0.208 0.487-0.374 0.779-0.484l0.016-0.005c0.291-0.111 0.627-0.175 0.977-0.175 0.003 0 0.007 0 0.010 0h-0.001zM43.383 26.272q1.223 0 1.66-1.092v-0.943h-1.651q-0.708 0-1.040 0.271-0.323 0.262-0.323 0.716 0 0.489 0.358 0.768 0.367 0.28 0.996 0.28zM50.407 21.923q0.847 0 1.336 0.498 0.489 0.489 0.489 1.406v2.664h-0.288v-2.647q0-0.803-0.411-1.223-0.401-0.428-1.153-0.428-0.847 0-1.336 0.507-0.489 0.498-0.489 1.345v2.446h-0.288v-4.533h0.28v1.109c0.143-0.352 0.385-0.639 0.692-0.834l0.007-0.004q0.489-0.306 1.162-0.306zM58.913 24.263h-3.974q0.008 0.576 0.271 1.031c0.172 0.299 0.415 0.539 0.707 0.703l0.009 0.005c0.29 0.16 0.636 0.253 1.004 0.253 0.009 0 0.018-0 0.028-0h-0.001q0.463 0 0.856-0.166c0.261-0.116 0.478-0.289 0.644-0.503l0.003-0.004 0.184 0.192c-0.2 0.234-0.448 0.42-0.73 0.545l-0.013 0.005c-0.271 0.121-0.588 0.192-0.921 0.192-0.008 0-0.016-0-0.023-0h0.001q-0.664 0-1.188-0.288c-0.342-0.198-0.617-0.477-0.807-0.81l-0.006-0.011q-0.297-0.524-0.297-1.188t0.271-1.188c0.179-0.341 0.441-0.616 0.759-0.807l0.009-0.005c0.305-0.187 0.674-0.297 1.069-0.297 0.008 0 0.017 0 0.025 0h-0.001q0.593 0 1.074 0.288c0.326 0.194 0.588 0.467 0.763 0.793l0.005 0.011q0.28 0.516 0.28 1.17zM56.791 22.184c-0.008-0-0.016-0-0.025-0-0.328 0-0.636 0.087-0.901 0.24l0.009-0.005c-0.276 0.16-0.498 0.386-0.651 0.656l-0.005 0.009c-0.159 0.271-0.258 0.594-0.271 0.939l-0 0.004h3.695c-0.020-0.351-0.125-0.673-0.294-0.953l0.005 0.009c-0.157-0.278-0.379-0.503-0.647-0.659l-0.008-0.004q-0.402-0.236-0.908-0.236zM63.524 26.202q-0.157 0.148-0.402 0.236c-0.15 0.050-0.323 0.079-0.503 0.079-0.001 0-0.003 0-0.004 0h0q-0.551 0-0.856-0.306-0.297-0.314-0.297-0.856v-3.144h-0.856v-0.253h0.856v-0.996h0.288v0.996h1.494v0.253h-1.494v3.101q0 0.463 0.227 0.707t0.664 0.245 0.734-0.271z"></path>
<path fill="#3a3e59" style="fill: var(--color2, #3a3e59)" d="M11.255 20.44c-0.806 0-1.599-0.035-2.362-0.104 0.487 2.424 1.363 4.040 2.362 4.040s1.876-1.617 2.363-4.040c-0.705 0.066-1.526 0.104-2.354 0.104-0.003 0-0.006 0-0.008 0h0zM13.888 13.288c-0.784-0.088-1.694-0.137-2.615-0.137-0.007 0-0.013 0-0.020 0h0.001c-0.919 0-1.804 0.048-2.633 0.137-0.087 0.783-0.137 1.691-0.137 2.61 0 0.008 0 0.016 0 0.024v-0.001c0 0.92 0.048 1.804 0.137 2.633 0.829 0.089 1.714 0.137 2.633 0.137s1.805-0.048 2.633-0.137c0.089-0.828 0.137-1.713 0.137-2.633s-0.048-1.804-0.137-2.633zM11.255 7.464c-1 0-1.875 1.617-2.362 4.040 0.705-0.066 1.526-0.104 2.354-0.104 0.003 0 0.006 0 0.008 0h-0c0.807 0 1.599 0.036 2.363 0.104-0.487-2.424-1.363-4.040-2.362-4.040zM15.672 13.558c0.066 0.705 0.104 1.526 0.104 2.354 0 0.003 0 0.006 0 0.009v-0c0 0.002 0 0.005 0 0.008 0 0.829-0.038 1.649-0.111 2.459l0.008-0.104c2.424-0.487 4.040-1.363 4.040-2.362s-1.616-1.876-4.040-2.363zM7.634 22.445c-0.231-0.702-0.419-1.492-0.563-2.341-0.848-0.144-1.638-0.332-2.34-0.562-0.67-0.219-1.253-0.474-1.743-0.76 0.903 2.539 2.868 4.503 5.345 5.387l0.061 0.019c-0.287-0.489-0.541-1.073-0.76-1.743zM14.117 7.654c0.286 0.489 0.541 1.073 0.76 1.743 0.231 0.702 0.419 1.492 0.563 2.34 0.848 0.144 1.638 0.333 2.34 0.563 0.67 0.219 1.253 0.474 1.743 0.76-0.903-2.539-2.868-4.503-5.345-5.387l-0.061-0.019zM17.78 19.542c-0.702 0.23-1.492 0.418-2.34 0.562-0.144 0.848-0.333 1.638-0.563 2.341-0.219 0.67-0.474 1.253-0.76 1.743 2.539-0.903 4.503-2.867 5.387-5.345l0.019-0.061c-0.489 0.286-1.073 0.541-1.743 0.76zM6.839 13.558c-2.424 0.488-4.040 1.363-4.040 2.363s1.616 1.876 4.040 2.363c-0.066-0.705-0.104-1.526-0.104-2.354 0-0.003 0-0.006 0-0.008v0c0-0.807 0.036-1.599 0.104-2.363zM2.988 13.059c0.489-0.286 1.073-0.541 1.743-0.76 0.702-0.23 1.492-0.418 2.34-0.562 0.144-0.848 0.333-1.638 0.562-2.34 0.22-0.67 0.474-1.253 0.76-1.743-2.538 0.903-4.502 2.868-5.387 5.345l-0.019 0.061z"></path>
<path fill="#f7efed" style="fill: var(--color1, #f7efed)" d="M0.45 12.769c-0.286 0.944-0.45 2.028-0.45 3.151 0 6.216 5.039 11.255 11.255 11.255s11.255-5.039 11.255-11.255c0-6.216-5.039-11.255-11.255-11.255-0.863 0-1.703 0.097-2.511 0.281l0.075-0.014 0.155 0.701c0.685-0.159 1.472-0.249 2.279-0.249 5.82 0 10.538 4.718 10.538 10.538s-4.718 10.538-10.538 10.538c-5.82 0-10.538-4.718-10.538-10.538 0-1.052 0.154-2.068 0.441-3.026l-0.019 0.075z"></path>
</symbol>

<symbol id="icon-phone" viewBox="0 0 32 32">
<path d="M27.312 4.684c-2.895-2.894-6.895-4.685-11.312-4.685-8.837 0-16 7.163-16 16 0 4.419 1.792 8.42 4.688 11.316l0 0c2.895 2.894 6.895 4.685 11.312 4.685 8.837 0 16-7.163 16-16 0-4.419-1.792-8.42-4.688-11.316l-0-0zM24.231 22.288l-0.002 0.002v-0.005l-0.811 0.805c-0.774 0.783-1.848 1.269-3.036 1.269-0.352 0-0.693-0.043-1.020-0.123l0.029 0.006c-1.565-0.427-2.935-1.059-4.17-1.878l0.053 0.033c-1.223-0.788-2.287-1.652-3.247-2.618l-0.001-0.001c-0.885-0.878-1.683-1.84-2.384-2.875l-0.043-0.068c-0.732-1.062-1.35-2.283-1.793-3.585l-0.031-0.105c-0.132-0.393-0.207-0.845-0.207-1.314 0-1.19 0.487-2.267 1.274-3.041l0.001-0.001 0.949-0.951c0.263-0.265 0.693-0.267 0.958-0.002l2.999 2.999c0.267 0.265 0.267 0.693 0.002 0.958l-1.762 1.762c-0.262 0.261-0.424 0.622-0.424 1.021 0 0.318 0.103 0.612 0.278 0.85l-0.003-0.004q0.956 1.314 2.107 2.459 1.282 1.289 2.773 2.331c0.23 0.164 0.517 0.261 0.827 0.261 0.398 0 0.757-0.161 1.018-0.421v0l1.701-1.728c0.263-0.265 0.693-0.267 0.958-0.002v0.002l3.004 3.008c0.267 0.265 0.267 0.693 0.002 0.958z"></path>
</symbol>

<symbol id="icon-mail" viewBox="0 0 38 32">
<path d="M18.822 17.673c0.112 0.085 0.255 0.136 0.409 0.136s0.296-0.051 0.41-0.137l-0.002 0.001 18.027-17.186c-0.355-0.302-0.818-0.486-1.325-0.486-0.001 0-0.003 0-0.004 0h-34.274c-0.012-0-0.025-0-0.039-0-0.51 0-0.977 0.187-1.336 0.495l0.003-0.002 13.916 13.216zM0.006 26.733l13.133-12.544-13.133-12.461c-0.004 0.049-0.006 0.106-0.006 0.164s0.002 0.115 0.007 0.172l-0-0.007z"></path>
<path d="M20.572 18.714c-0.364 0.299-0.835 0.48-1.348 0.48-0.008 0-0.016-0-0.025-0h0.001c-0.366-0.001-0.709-0.1-1.004-0.272l0.010 0.005c-0.112-0.064-0.208-0.13-0.298-0.204l0.004 0.003-3.776-3.59-14.129 13.47v0.87c0 1.135 0.922 2.057 2.057 2.057h34.534c1.018-0.134 1.796-0.996 1.796-2.040 0-0.006-0-0.012-0-0.017v0.001-0.885l-14.095-13.427zM38.394 1.713l-13.135 12.497 13.133 12.489v-24.64c0.004-0.052 0.007-0.112 0.007-0.173s-0.003-0.121-0.008-0.181l0.001 0.008z"></path>
</symbol>

<symbol id="icon-instagram" viewBox="0 0 32 32">
<path d="M27.312 0h-22.624c-2.588 0.003-4.685 2.1-4.688 4.688v22.624c0.003 2.588 2.1 4.686 4.688 4.688h22.624c2.588-0.003 4.686-2.1 4.688-4.688v-22.624c-0.003-2.588-2.1-4.686-4.688-4.688h-0zM16.063 24.375c-4.657-0.006-8.431-3.78-8.436-8.437v-0c0-4.653 3.783-8.436 8.436-8.436s8.436 3.783 8.436 8.436-3.783 8.436-8.436 8.436zM25.437 9.373c-1.552-0.002-2.809-1.26-2.812-2.811v-0c0-1.551 1.261-2.813 2.812-2.813s2.813 1.263 2.813 2.813c-0.002 1.552-1.261 2.81-2.813 2.812h-0z"></path>
<path d="M16.063 9.375c-3.623 0.004-6.559 2.94-6.563 6.563v0c0.004 3.623 2.94 6.559 6.563 6.563h0c3.623-0.004 6.559-2.94 6.563-6.563v-0c-0.004-3.623-2.94-6.559-6.563-6.563h-0zM25.437 5.625c-0.518 0-0.937 0.42-0.937 0.938s0.42 0.938 0.938 0.938c0 0 0 0 0.001 0h-0c0.518 0 0.938-0.42 0.938-0.938s-0.42-0.938-0.938-0.938v0z"></path>
</symbol>

<symbol id="icon-facebook" viewBox="0 0 32 32">
<path d="M27.312 0h-22.624c-2.588 0.003-4.685 2.1-4.688 4.688v22.624c0.003 2.588 2.1 4.686 4.688 4.688h9.436v-11.312h-3.748v-5.626h3.748v-3.811c0.002-3.106 2.519-5.624 5.624-5.626h5.688v5.625h-5.687v3.812h5.687l-0.937 5.626h-4.751v11.312h7.564c2.588-0.003 4.686-2.1 4.688-4.688v-22.624c-0.003-2.588-2.1-4.686-4.688-4.688h-0z"></path>
</symbol>

<symbol id="icon-youtube" viewBox="0 0 46 32">
<path d="M43.476 3.008c-1.232-2.19-2.569-2.594-5.291-2.747-2.718-0.185-9.554-0.261-15.477-0.261-5.932 0-12.77 0.076-15.488 0.258-2.716 0.156-4.055 0.556-5.3 2.75-1.268 2.187-1.92 5.956-1.92 12.592v0.021c0 6.608 0.652 10.404 1.92 12.569 1.244 2.192 2.581 2.588 5.298 2.773 2.718 0.16 9.557 0.252 15.49 0.252 5.924 0 12.759-0.094 15.481-0.249 2.72-0.185 4.059-0.583 5.289-2.773 1.28-2.165 1.927-5.963 1.927-12.569v-0.023c0-6.636-0.647-10.405-1.929-12.594zM17.028 24.121v-17.026l14.187 8.512z"></path>
</symbol>

<symbol id="icon-burger-close" viewBox="0 0 32 32">
<path fill="none" stroke="#fff" style="stroke: var(--color1, #fff)" stroke-linejoin="round" stroke-linecap="round" stroke-miterlimit="4" stroke-width="0.9143" d="M31.543 0.457l-31.086 31.086M0.457 0.457l31.086 31.086"></path>
</symbol>

<symbol id="icon-menu-burger" viewBox="0 0 32 32">
<path d="M29.333 24.007c0 0.733-0.595 1.327-1.327 1.327h-10.68c-0.733 0-1.327-0.594-1.327-1.327s0.594-1.327 1.327-1.327h10.68c0.733 0 1.327 0.593 1.327 1.327zM29.333 16c0 0.733-0.595 1.327-1.327 1.327h-24.013c-0.733 0-1.327-0.594-1.327-1.327s0.594-1.327 1.327-1.327h24.013c0.733 0 1.327 0.595 1.327 1.327zM28.007 9.32c0.733 0 1.327-0.594 1.327-1.327s-0.594-1.327-1.327-1.327h-16.013c-0.733 0-1.327 0.594-1.327 1.327s0.594 1.327 1.327 1.327h16.013z" ></path>
</symbol>

<symbol id="icon-benefits-experience" viewBox="0 0 32 32">
<path d="M31.965 11.9c-0.129-0.018-0.26 0.023-0.356 0.11l-4.406 3.917h-5.634l-4.231 5.169c-0.083 0.101-0.119 0.232-0.099 0.361 0.019 0.128 0.092 0.243 0.2 0.314 0.194 0.131 0.455 0.096 0.608-0.081l3.82-4.455v14.618h1.706v-7.963h1.138v7.963h1.706v-13.903l5.795-5.266c0.090-0.083 0.146-0.201 0.146-0.333 0-0.093-0.028-0.179-0.076-0.251l0.001 0.002c-0.070-0.109-0.185-0.185-0.317-0.202l-0.002-0zM14.917 21.773c0.126-0.083 0.208-0.225 0.208-0.385 0-0.111-0.039-0.213-0.105-0.293l0.001 0.001-4.23-5.17h-5.635l-4.407-3.917c-0.079-0.070-0.183-0.113-0.298-0.113-0.155 0-0.293 0.079-0.373 0.199l-0.001 0.002c-0.048 0.071-0.077 0.159-0.077 0.254 0 0.132 0.056 0.251 0.146 0.334l0 0 5.795 5.266v13.903h1.706v-7.963h1.138v7.963h1.706v-14.619l3.819 4.457c0.085 0.098 0.21 0.16 0.349 0.16 0.096 0 0.185-0.029 0.259-0.080l-0.002 0.001zM23.574 6.826h6.555l-0.91-2.275 0.91-2.275h-4.848v3.413h-1.706zM17.317 0h6.826v4.55h-6.826z"></path>
<path d="M25.85 13.083c0 0.942-0.764 1.706-1.706 1.706s-1.706-0.764-1.706-1.706v0c0-0.942 0.764-1.706 1.706-1.706s1.706 0.764 1.706 1.706v0zM9.427 11.872c-0.662-0.663-1.742-0.658-2.41 0.011s-0.673 1.747-0.011 2.41 1.742 0.658 2.41-0.011c0.669-0.669 0.674-1.748 0.011-2.411zM15.611 0h0.569v27.303h-0.569z"></path>
</symbol>

<symbol id="icon-benefits-variants" viewBox="0 0 35 32">
<path d="M19.87 2.887c0 0.009 0 0.019 0 0.030 0 1.276-1.034 2.31-2.31 2.31s-2.31-1.034-2.31-2.31c0-0.011 0-0.021 0-0.032l-0 0.002c0.017-1.263 1.045-2.28 2.31-2.28s2.293 1.017 2.31 2.278l0 0.002zM21.603 8.661v9.181c0.234-0.047 0.441-0.117 0.635-0.21l-0.016 0.007c1.005-0.466 1.69-1.466 1.691-2.626v-4.619c-0.002-1.382-0.696-2.602-1.755-3.331l-0.014-0.009c-0.632-0.439-1.416-0.702-2.261-0.702-0.004 0-0.008 0-0.013 0h-4.618c-2.231 0.003-4.039 1.811-4.042 4.042v4.619c0.002 1.39 0.983 2.549 2.291 2.826l0.019 0.003v-9.181h1.155v23.096h2.309v-13.28h1.155v13.28h2.309v-23.096zM2.21 15.013h6.69v-1.155h-6.69l1.464-1.464-0.816-0.817-2.858 2.859 2.858 2.858 0.816-0.816zM32.264 11.577l-0.817 0.817 1.465 1.464h-6.69v1.155h6.69l-1.464 1.464 0.816 0.816 2.858-2.858zM4.281 1.971l5.366 5.366 0.816-0.816-5.366-5.366h2.071v-1.155h-4.042v4.042h1.155zM25.475 7.337l5.366-5.366v2.071h1.155v-4.042h-4.042v1.155h2.071l-5.366 5.365zM9.647 21.533l-5.366 5.366v-2.071h-1.155v4.042h4.042v-1.155h-2.071l5.366-5.365zM30.841 26.899l-5.366-5.366-0.816 0.816 5.366 5.366h-2.071v1.155h4.042v-4.042h-1.155z"></path>
</symbol>

<symbol id="icon-benefits-budget" viewBox="0 0 32 32">
<path d="M16 19.764l1.104-1.104-0.806-4.974c-0.196 0.039-0.398 0.039-0.595 0l-0.806 4.974zM20 29.715h12v0.571h-12z"></path>
<path d="M7.429 15.429v6.285h2.857v-6.285h1.143v6.285h9.143v-6.285h1.143v6.285h2.857v-6.285c0-0.003 0-0.006 0-0.010 0-1.102-0.446-2.1-1.168-2.822l0 0c-0.722-0.722-1.719-1.168-2.821-1.168-0.004 0-0.008 0-0.012 0h-2.962c0.067 0.172 0.105 0.372 0.105 0.58 0 0.393-0.137 0.754-0.366 1.037l0.002-0.003 0.974 6.012-2.325 2.325-2.325-2.325 0.972-6.011c-0.225-0.28-0.362-0.64-0.362-1.032 0-0.209 0.039-0.409 0.11-0.594l-0.004 0.011h-2.962c-0.003 0-0.007 0-0.011 0-2.203 0-3.989 1.786-3.989 3.989 0 0.004 0 0.008 0 0.011v-0.001zM20 28h12v0.571h-12zM20 31.429h12v0.571h-12zM17.143 9.673q-0.284 0.041-0.571 0.041h-1.143q-0.287 0-0.571-0.041v0.612h2.285z"></path>
<path d="M16.571 12c0 0.316-0.256 0.571-0.571 0.571s-0.571-0.256-0.571-0.571v0c0-0.316 0.256-0.571 0.571-0.571s0.571 0.256 0.571 0.571v0zM19.429 0h-9.715v0.571c0 1.262 1.024 2.286 2.286 2.286h8v-2.286c0-0.315-0.256-0.571-0.571-0.571zM20 26.286h12v0.571h-12zM19.429 5.714v-1.714h-6.857v1.714c0 0.002 0 0.004 0 0.006 0 1.233 0.785 2.283 1.882 2.678l0.020 0.006c0.306 0.111 0.629 0.168 0.955 0.168h1.143c0.002 0 0.003 0 0.005 0 0.338 0 0.662-0.060 0.961-0.171l-0.019 0.006c1.121-0.4 1.909-1.452 1.909-2.689 0-0.001 0-0.002 0-0.004v0zM0 26.286h12v0.571h-12zM0 24.571h12v0.571h-12zM0 28h12v0.571h-12zM0 31.429h12v0.571h-12zM0 29.715h12v0.571h-12zM18.857 32v-9.143h-5.715v9.143zM16 28c-1.282 0-2.286-0.753-2.286-1.714 0-0.812 0.719-1.47 1.714-1.657v-1.2h1.143v1.2c0.995 0.186 1.715 0.844 1.715 1.657h-1.143c0-0.233-0.445-0.571-1.143-0.571s-1.143 0.338-1.143 0.572c0 0.233 0.445 0.571 1.143 0.571 1.282 0 2.286 0.752 2.286 1.714 0 0.812-0.719 1.47-1.715 1.657v1.2h-1.143v-1.2c-0.995-0.186-1.714-0.844-1.714-1.657h1.143c0 0.233 0.445 0.571 1.143 0.571s1.143-0.338 1.143-0.571c0-0.233-0.445-0.571-1.143-0.571zM20 22.857h12v0.571h-12zM20 24.571h12v0.571h-12zM0 22.857h12v0.571h-12z"></path>
</symbol>

<symbol id="icon-benefits-individuality" viewBox="0 0 32 32">
<path d="M17.715 7.429c0 0.947-0.767 1.714-1.714 1.714s-1.714-0.767-1.714-1.714v0c0-0.947 0.767-1.714 1.714-1.714s1.714 0.767 1.714 1.714v0zM15.452 15.216l0.548 0.547 0.548-0.547-0.493-4.931h-0.109z"></path>
<path d="M19.429 12v6.857c0 0 0 0 0.001 0 0.947 0 1.714-0.767 1.714-1.714 0-0 0-0 0-0v0-4c-0.002-1.577-1.28-2.855-2.857-2.857h-1.086l0.535 5.355-1.735 1.739-1.739-1.739 0.538-5.355h-1.085c-1.577 0.002-2.855 1.28-2.857 2.857v4c0 0 0 0 0 0 0 0.947 0.767 1.714 1.714 1.714 0 0 0.001 0 0.001 0h-0v-6.857h1.143v16h1.714v-8h1.143v8h1.714v-16z"></path>
<path d="M31.221 11.061l-1.079 0.393c0.454 1.352 0.715 2.909 0.715 4.528 0 0.007 0 0.013 0 0.020v-0.001c-0.009 8.202-6.656 14.848-14.857 14.857-0.012 0-0.027 0-0.041 0-3.347 0-6.434-1.119-8.904-3.004l0.036 0.026-0.525-0.395 1.419-1.419-3.828-0.765 0.766 3.828 0.832-0.832 0.4 0.312c2.663 2.114 6.072 3.392 9.78 3.392 0.023 0 0.047-0 0.070-0h-0.004c8.837-0.003 16-7.168 16-16.006 0-1.763-0.285-3.459-0.811-5.046l0.032 0.113zM27.078 2.302l-1.149 1.149-0.396-0.296c-2.608-1.97-5.904-3.155-9.477-3.155-0.019 0-0.039 0-0.058 0h0.003c-8.838 0.006-15.999 7.172-15.999 16.011 0 1.757 0.283 3.448 0.806 5.030l-0.032-0.113 1.079-0.392c-0.45-1.348-0.71-2.9-0.71-4.512 0-0.008 0-0.017 0-0.025v0.001c0.009-8.201 6.655-14.848 14.857-14.857 0.008-0 0.018-0 0.028-0 3.202 0 6.165 1.022 8.581 2.758l-0.044-0.030 0.551 0.391-1.1 1.101 3.829 0.766z"></path>
</symbol>

<symbol id="icon-arrow" viewBox="0 0 151 32">
<path stroke-linejoin="round" stroke-linecap="round" stroke-miterlimit="4" stroke-width="2.1333" d="M1.067 16h147.386M133.519 1.067l14.933 14.933-14.933 14.933"></path>
</symbol>

<symbol id="icon-gps" viewBox="0 0 22 32">
<path d="M10.942 0c-6.034 0-10.942 4.908-10.942 10.942 0 2.038 0.565 4.028 1.632 5.754l8.687 13.997c0.164 0.26 0.45 0.431 0.775 0.431 0.331 0 0.62-0.176 0.78-0.439l0.002-0.004 8.465-14.133c0.969-1.6 1.542-3.533 1.542-5.6 0-0.002 0-0.004 0-0.006v0c0-6.034-4.908-10.942-10.942-10.942zM10.942 16.426c-3.060 0-5.483-2.492-5.483-5.484 0-3.017 2.466-5.483 5.483-5.483s5.483 2.466 5.483 5.483c0 2.966-2.39 5.483-5.483 5.483z"></path>
</symbol>

<symbol id="icon-time" viewBox="0 0 32 32">
<path d="M15.502 0c-8.548 0-15.502 6.954-15.502 15.502 0 8.547 6.954 15.623 15.502 15.623 8.547 0 15.623-7.076 15.623-15.623s-7.076-15.502-15.623-15.502zM15.502 27.477c-6.52 0-11.855-5.427-11.855-11.975 0-6.52 5.306-11.855 11.855-11.855 6.518 0 11.975 5.306 11.975 11.855 0 6.518-5.427 11.975-11.975 11.975z"></path>
<path d="M24.742 16.413c-1.203 0-1.207-1.824 0-1.824h0.865c-0.197-2.115-1.026-4.006-2.293-5.518l0.013 0.016-0.611 0.611c-0.849 0.848-2.15-0.43-1.29-1.29l0.61-0.61c-1.52-1.268-3.541-2.092-5.623-2.28v0.865c0 1.202-1.823 1.207-1.823 0v-0.866c-2.115 0.197-4.006 1.026-5.518 2.294l0.015-0.013 0.61 0.61c0.864 0.864-0.454 2.125-1.29 1.29l-0.61-0.61c-1.254 1.495-2.083 3.386-2.277 5.461l-0.003 0.040h0.865c1.202 0 1.207 1.824 0 1.824h-0.866c0.189 2.082 1.013 4.103 2.281 5.624l0.61-0.61c0.848-0.849 2.145 0.434 1.29 1.288l-0.61 0.611c1.495 1.255 3.387 2.084 5.462 2.278l0.040 0.003v-0.866c0-1.202 1.823-1.207 1.823 0v0.866c2.082-0.189 4.103-1.013 5.624-2.281l-0.61-0.61c-0.848-0.848 0.434-2.145 1.289-1.29l0.61 0.61c1.268-1.52 2.092-3.541 2.281-5.623zM18.626 19.793l-3.648-3.647c-0.166-0.165-0.268-0.393-0.268-0.645s0.102-0.48 0.268-0.645l3.648-3.647c0.165-0.165 0.393-0.267 0.645-0.267 0.504 0 0.912 0.408 0.912 0.912 0 0.252-0.102 0.48-0.267 0.645v0l-3.005 3.001 3.003 3.003c0.864 0.864-0.454 2.125-1.29 1.29z"></path>
</symbol>

</defs>
</svg>
